/* XPM */
static const char *agent_xpm[] = {
/* columns rows colors chars-per-pixel */
"32 32 5 1 ",
"  c black",
". c red",
"X c #808080",
"o c #C0C0C0",
"O c white",
/* pixels */
"OOOOOOOOOOOOOOOOOOOOOOOOOOOOOOO ",
"OXXXXXXXXXXXXXXXXXXXXXXXXXXXXXX ",
"OXoooooooooooooooooooooooooooOX ",
"OXoooooooooooooooooooooooooooOX ",
"OXooooo.....ooooooo.....oooooOX ",
"OXoooo.     .ooooo.     .ooooOX ",
"OXooo.     o .ooo.     o .oooOX ",
"OXoo.     ooo .o.     ooo .ooOX ",
"OXo.      ooo  .      ooo  .oOX ",
"OXo.       oo  .       oo  .oOX ",
"OXo.           .           .oOX ",
"OXo.           .           .oOX ",
"OXo.           .           .oOX ",
"OXoo.         .o.         .ooOX ",
"OXooo.       .ooo.       .oooOX ",
"OXoooo.     .ooooo.     .ooooOX ",
"OXooooo.....XoooooX.....oooooOX ",
"OXooooooooooXXooooXooooooooooOX ",
"OXoooooooooooXXoXXXooooooooooOX ",
"OXooooXXooooooXXXooooooooooooOX ",
"OXooooooXXoooooXXoooooooXooooOX ",
"OXooooooooXXXoooooooooooXooooOX ",
"OXoooooooooooXoooooooooXXooooOX ",
"OXooooooooooooXXXXoooooXoooooOX ",
"OXoooooooooooooooXXXXXXXoooooOX ",
"OXoooooooooooooooooooooooooooOX ",
"OXoooooooooooooooooooooooooooOX ",
"OXoooooooooooooooooooooooooooOX ",
"OXoooooooooooooooooooooooooooOX ",
"OXOOOOOOOOOOOOOOOOOOOOOOOOOOOOX ",
"OXXXXXXXXXXXXXXXXXXXXXXXXXXXXXX ",
"                                "
};
